<svg xmlns="http://www.w3.org/2000/svg" xmlns:xlink="http://www.w3.org/1999/xlink" width="100%" height="100%" fill-rule="evenodd" stroke-linejoin="round" stroke-miterlimit="2" clip-rule="evenodd" version="1.1" viewBox="0 0 800 400" xml:space="preserve"><g><text x="70.701" y="139.577" font-family="'PressStart2P-Regular', 'Press Start 2P'" font-size="79.638">Open</text><text x="170.182" y="239.177" font-family="'PressStart2P-Regular', 'Press Start 2P'" font-size="79.638">Pixel</text><text x="70.701" y="319.751" font-family="'PressStart2P-Regular', 'Press Start 2P'" font-size="79.638">Art</text><text x="340.119" y="309.796" font-family="'PressStart2P-Regular', 'Press Start 2P'" font-size="39.802">by</text><g><rect width="9.957" height="9.957" x="150.477" y="220.061" fill="#f22f46"/><rect width="9.957" height="9.957" x="400.477" y="110.019" fill="#0d122b"/><rect width="9.957" height="9.957" x="480.435" y="150.061" fill="#f22f46"/><rect width="9.957" height="9.957" x="570.477" y="200.019" fill="#8c5bd8"/><rect width="9.957" height="9.957" x="210.477" y="49.981" fill="#f22f46"/><rect width="9.957" height="9.957" x="250.435" y="199.976" fill="#36d576"/><rect width="9.957" height="9.957" x="110.435" y="150.019" fill="#efdc2e"/><rect width="9.957" height="9.957" x="350.435" y="250.019" fill="#f22f46"/><rect width="9.957" height="9.957" x="180.435" y="320.061" fill="#f22f46"/><rect width="9.957" height="9.957" x="620.435" y="230.019" fill="#f47c22"/><rect width="9.957" height="9.957" x="630.392" y="320.061" fill="#008cff"/><rect width="9.957" height="9.957" x="310.477" y="299.839" fill="#8c5bd8"/><rect width="9.957" height="9.957" x="520.435" y="340.061" fill="#f22f46"/><rect width="9.957" height="9.957" x="710.435" y="190.019" fill="#f22f46"/><rect width="9.957" height="9.957" x="600.435" y="150.061" fill="#f47c22"/><rect width="9.957" height="9.957" x="660.477" y="170.061" fill="#f22f46"/><rect width="9.957" height="9.957" x="490.477" y="240.019" fill="#f22f46"/><rect width="9.957" height="9.957" x="540.477" y="90.019" fill="#f22f46"/><rect width="9.957" height="9.957" x="370.435" y="49.981" fill="#f22f46"/><rect width="9.957" height="9.957" x="690.477" y="120.019" fill="#37d676"/><rect width="9.957" height="9.957" x="460.435" y="70.019" fill="#8d57d8"/></g><text x="495.459" y="314.772" fill="#f22f46" font-family="'PressStart2P-Regular', 'Press Start 2P'" font-size="39.802">Twilio</text><g><path fill="#ed344a" fill-rule="nonzero" d="M448.896,278.48l0,9.231l9.231,0l0,-9.231l-9.231,0Z"/><path fill="#ed344a" fill-rule="nonzero" d="M448.896,292.327l0,9.23l9.231,0l0,-9.23l-9.231,0Z"/><path fill="#ed344a" fill-rule="nonzero" d="M462.742,278.48l0,9.231l9.231,0l0,-9.231l-9.231,0Z"/><path fill="#ed344a" fill-rule="nonzero" d="M462.742,292.327l0,9.23l9.231,0l0,-9.23l-9.231,0Z"/><path fill="#ed344a" fill-rule="nonzero" d="M485.819,278.48l0,-4.615l-4.615,0l0,-4.615l-4.616,0l0,-4.616l-4.615,0l0,-4.615l-23.077,0l0,4.615l-4.615,0l0,4.616l-4.616,0l0,4.615l-4.615,0l0,4.615l-4.615,0l0,23.077l4.615,0l0,4.616l4.615,0l0,4.615l4.616,0l0,4.616l4.615,0l0,4.615l23.077,0l0,-4.615l4.615,0l0,-4.616l4.616,0l0,-4.615l4.615,0l0,-4.616l4.616,0l0,-23.077l-4.616,0Zm-9.231,18.462l0,9.231l-9.23,0l0,4.615l-13.847,0l0,-4.615l-9.23,0l0,-9.231l-4.616,0l0,-13.846l4.616,0l0,-9.231l9.23,0l0,-4.615l13.847,0l0,4.615l9.23,0l0,9.231l4.616,0l0,13.846l-4.616,0Z"/></g></g><rect width="800" height="20" x="0" y="0" fill="#f22f46"/><rect width="800" height="20" x="0" y="380" fill="#f22f46"/></svg>