<svg xmlns="http://www.w3.org/2000/svg" xmlns:xlink="http://www.w3.org/1999/xlink" width="100%" height="100%" fill-rule="evenodd" stroke-linejoin="round" stroke-miterlimit="2" clip-rule="evenodd" version="1.1" viewBox="0 0 690 330" xml:space="preserve"><rect id="Artboard1" width="690" height="330" x="0" y="0" fill="none"/><path fill-rule="nonzero" d="M20.222,99.603l0,-9.955l-9.955,0l0,-49.774l9.955,0l0,-9.954l49.774,0l0,9.954l9.954,0l0,49.774l-9.954,0l0,9.955l-49.774,0Zm9.954,-9.955l29.865,0l0,-49.774l-29.865,0l0,49.774Z"/><path fill-rule="nonzero" d="M89.905,109.558l0,-59.729l59.729,0l0,9.955l9.955,0l0,19.91l-9.955,0l0,9.954l-39.819,0l0,19.91l-19.91,0Zm19.91,-29.864l29.864,0l0,-19.91l-29.864,0l0,19.91Z"/><path fill-rule="nonzero" d="M179.498,99.603l0,-9.955l-9.954,0l0,-29.864l9.954,0l0,-9.955l49.774,0l0,9.955l9.955,0l0,19.91l-49.774,0l0,9.954l39.819,0l0,9.955l-49.774,0Zm9.955,-29.864l29.864,0l0,-9.955l-29.864,0l0,9.955Z"/><path fill-rule="nonzero" d="M249.182,99.603l0,-49.774l59.729,0l0,9.955l9.954,0l0,39.819l-19.909,0l0,-39.819l-29.865,0l0,39.819l-19.909,0Z"/><path fill-rule="nonzero" d="M109.747,199.203l0,-69.683l59.729,0l0,9.954l9.955,0l0,29.865l-9.955,0l0,9.955l-39.819,0l0,19.909l-19.91,0Zm19.91,-29.864l29.864,0l0,-29.865l-29.864,0l0,29.865Z"/><path fill-rule="nonzero" d="M219.25,139.474l0,-9.954l19.909,0l0,9.954l-19.909,0Zm-19.91,59.729l0,-9.955l19.91,0l0,-29.864l-9.955,0l0,-9.955l29.864,0l0,39.819l19.91,0l0,9.955l-59.729,0Z"/><path fill-rule="nonzero" d="M269.024,199.203l0,-9.955l9.955,0l0,-9.954l9.954,0l0,-9.955l-9.954,0l0,-9.955l-9.955,0l0,-9.955l19.909,0l0,9.955l9.955,0l0,9.955l9.955,0l0,-9.955l9.955,0l0,-9.955l19.909,0l0,9.955l-9.954,0l0,9.955l-9.955,0l0,9.955l9.955,0l0,9.954l9.954,0l0,9.955l-19.909,0l0,-9.955l-9.955,0l0,-9.954l-9.955,0l0,9.954l-9.955,0l0,9.955l-19.909,0Z"/><path fill-rule="nonzero" d="M358.617,199.203l0,-9.955l-9.955,0l0,-29.864l9.955,0l0,-9.955l49.774,0l0,9.955l9.955,0l0,19.91l-49.774,0l0,9.954l39.819,0l0,9.955l-49.774,0Zm9.955,-29.864l29.864,0l0,-9.955l-29.864,0l0,9.955Z"/><path fill-rule="nonzero" d="M438.255,199.203l0,-9.955l19.91,0l0,-49.774l-9.955,0l0,-9.954l29.864,0l0,59.728l19.91,0l0,9.955l-59.729,0Z"/><path fill-rule="nonzero" d="M10.267,279.777l0,-49.774l9.955,0l0,-9.954l9.954,0l0,-9.955l29.865,0l0,9.955l9.955,0l0,9.954l9.954,0l0,49.774l-19.909,0l0,-19.909l-29.865,0l0,19.909l-19.909,0Zm19.909,-29.864l29.865,0l0,-19.91l-9.955,0l0,-9.954l-9.955,0l0,9.954l-9.955,0l0,19.91Z"/><path fill-rule="nonzero" d="M119.77,239.958l9.954,0l0,9.955l-9.954,0l0,29.864l-19.91,0l0,-49.774l19.91,0l0,9.955Zm39.819,-9.955l0,9.955l-29.865,0l0,-9.955l29.865,0Z"/><path fill-rule="nonzero" d="M199.408,279.777l0,-39.819l-19.91,0l0,-9.955l19.91,0l0,-19.909l19.909,0l0,19.909l19.91,0l0,9.955l-19.91,0l0,39.819l-19.909,0Z"/><path fill-rule="nonzero" d="M284.659,274.802l0,-4.975l-4.975,0l0,-29.852l9.951,0l0,9.951l19.901,0l0,4.975l4.975,0l0,14.926l-4.975,0l0,4.975l-24.877,0Zm4.976,-4.975l14.926,0l0,-14.926l-14.926,0l0,14.926Z"/><path fill-rule="nonzero" d="M324.462,279.777l0,-4.975l19.901,0l0,-4.975l-19.901,0l0,-4.976l-4.975,0l0,-14.925l9.95,0l0,14.925l14.926,0l0,-14.925l9.951,0l0,24.876l-4.976,0l0,4.975l-24.876,0Z"/><g><rect width="9.957" height="9.957" x="90.043" y="190.043" fill="#f22f46"/><rect width="9.957" height="9.957" x="340.043" y="80" fill="#0d122b"/><rect width="9.957" height="9.957" x="420" y="120.043" fill="#f22f46"/><rect width="9.957" height="9.957" x="510.043" y="170" fill="#8c5bd8"/><rect width="9.957" height="9.957" x="150.043" y="19.962" fill="#f22f46"/><rect width="9.957" height="9.957" x="190" y="169.957" fill="#36d576"/><rect width="9.957" height="9.957" x="50" y="120" fill="#efdc2e"/><rect width="9.957" height="9.957" x="290" y="220" fill="#f22f46"/><rect width="9.957" height="9.957" x="120" y="290.043" fill="#f22f46"/><rect width="9.957" height="9.957" x="560" y="200" fill="#f47c22"/><rect width="9.957" height="9.957" x="569.957" y="290.043" fill="#008cff"/><rect width="9.957" height="9.957" x="250.043" y="269.82" fill="#8c5bd8"/><rect width="9.957" height="9.957" x="460" y="310.043" fill="#f22f46"/><rect width="9.957" height="9.957" x="650" y="160" fill="#f22f46"/><rect width="9.957" height="9.957" x="540" y="120.043" fill="#f47c22"/><rect width="9.957" height="9.957" x="600.043" y="140.043" fill="#f22f46"/><rect width="9.957" height="9.957" x="430.043" y="210" fill="#f22f46"/><rect width="9.957" height="9.957" x="480.043" y="60" fill="#f22f46"/><rect width="9.957" height="9.957" x="310" y="19.962" fill="#f22f46"/><rect width="9.957" height="9.957" x="630.043" y="90" fill="#37d676"/><rect width="9.957" height="9.957" x="400" y="40" fill="#8d57d8"/></g><path fill="#f22f46" fill-rule="nonzero" d="M449.951,279.777l0,-29.851l-9.951,0l0,-4.976l29.852,0l0,4.976l-9.951,0l0,29.851l-9.95,0Z"/><path fill="#f22f46" fill-rule="nonzero" d="M484.778,274.802l4.975,0l0,4.975l-9.951,0l0,-4.975l-4.975,0l0,-19.901l9.951,0l0,19.901Zm9.95,-19.901l0,19.901l-4.975,0l0,-19.901l4.975,0Zm14.926,0l0,19.901l-4.975,0l0,4.975l-9.951,0l0,-4.975l4.976,0l0,-19.901l9.95,0Z"/><path fill="#f22f46" fill-rule="nonzero" d="M529.555,249.926l0,-4.976l9.951,0l0,4.976l-9.951,0Zm-9.95,29.851l0,-4.975l9.95,0l0,-14.926l-4.975,0l0,-4.975l14.926,0l0,19.901l9.951,0l0,4.975l-29.852,0Z"/><path fill="#f22f46" fill-rule="nonzero" d="M559.407,279.777l0,-4.975l9.951,0l0,-24.876l-4.975,0l0,-4.976l14.925,0l0,29.852l9.951,0l0,4.975l-29.852,0Z"/><path fill="#f22f46" fill-rule="nonzero" d="M609.16,249.926l0,-4.976l9.951,0l0,4.976l-9.951,0Zm-9.95,29.851l0,-4.975l9.95,0l0,-14.926l-4.975,0l0,-4.975l14.926,0l0,19.901l9.951,0l0,4.975l-29.852,0Z"/><path fill="#f22f46" fill-rule="nonzero" d="M639.012,279.777l0,-4.975l-4.975,0l0,-14.926l4.975,0l0,-4.975l24.877,0l0,4.975l4.975,0l0,14.926l-4.975,0l0,4.975l-24.877,0Zm4.975,-4.975l14.926,0l0,-14.926l-14.926,0l0,14.926Z"/><g><rect width="9.231" height="9.231" x="388.462" y="248.462" fill="#ed344a" fill-rule="nonzero"/><rect width="9.231" height="9.231" x="388.462" y="262.308" fill="#ed344a" fill-rule="nonzero"/><rect width="9.231" height="9.231" x="402.308" y="248.462" fill="#ed344a" fill-rule="nonzero"/><rect width="9.231" height="9.231" x="402.308" y="262.308" fill="#ed344a" fill-rule="nonzero"/><path fill="#ed344a" fill-rule="nonzero" d="M425.385,248.462l0,-4.616l-4.616,0l0,-4.615l-4.615,0l0,-4.616l-4.616,0l0,-4.615l-23.076,0l0,4.615l-4.616,0l0,4.616l-4.615,0l0,4.615l-4.616,0l0,4.616l-4.615,0l0,23.076l4.615,0l0,4.616l4.616,0l0,4.615l4.615,0l0,4.616l4.616,0l0,4.615l23.076,0l0,-4.615l4.616,0l0,-4.616l4.615,0l0,-4.615l4.616,0l0,-4.616l4.615,0l0,-23.076l-4.615,0Zm-9.231,18.461l0,9.231l-9.231,0l0,4.615l-13.846,0l0,-4.615l-9.231,0l0,-9.231l-4.615,0l0,-13.846l4.615,0l0,-9.231l9.231,0l0,-4.615l13.846,0l0,4.615l9.231,0l0,9.231l4.615,0l0,13.846l-4.615,0Z"/></g></svg>